<?xml version="1.0" encoding="UTF-8" standalone="no"?>
<!-- Created with Inkscape (http://www.inkscape.org/) -->

<svg
   xmlns:dc="http://purl.org/dc/elements/1.1/"
   xmlns:cc="http://creativecommons.org/ns#"
   xmlns:rdf="http://www.w3.org/1999/02/22-rdf-syntax-ns#"
   xmlns:svg="http://www.w3.org/2000/svg"
   xmlns="http://www.w3.org/2000/svg"
   xmlns:sodipodi="http://sodipodi.sourceforge.net/DTD/sodipodi-0.dtd"
   xmlns:inkscape="http://www.inkscape.org/namespaces/inkscape"
   id="svg3004"
   version="1.1"
   inkscape:version="0.48.1 r9760"
   width="470"
   height="470"
   sodipodi:docname="m4dh-twitterlogo-cropped.png">
  <metadata
     id="metadata3010">
    <rdf:RDF>
      <cc:Work
         rdf:about="">
        <dc:format>image/svg+xml</dc:format>
        <dc:type
           rdf:resource="http://purl.org/dc/dcmitype/StillImage" />
        <dc:title></dc:title>
      </cc:Work>
    </rdf:RDF>
  </metadata>
  <defs
     id="defs3008" />
  <sodipodi:namedview
     pagecolor="#ffffff"
     bordercolor="#666666"
     borderopacity="1"
     objecttolerance="10"
     gridtolerance="10"
     guidetolerance="10"
     inkscape:pageopacity="0"
     inkscape:pageshadow="2"
     inkscape:window-width="1920"
     inkscape:window-height="1056"
     id="namedview3006"
     showgrid="false"
     inkscape:zoom="1.1347518"
     inkscape:cx="107.15361"
     inkscape:cy="178.89613"
     inkscape:window-x="0"
     inkscape:window-y="24"
     inkscape:window-maximized="1"
     inkscape:current-layer="layer1" />
  <g
     inkscape:groupmode="layer"
     id="layer1"
     inkscape:label="Layer"
     style="display:inline"
     transform="translate(0,329)">
    <g
       id="g3060"
       transform="matrix(3.3333333,0,0,3.3333333,0,-329)">
      <path
         style="fill:#fdfdfd"
         d="M 0,70.5 0,0 70.5,0 141,0 141,70.5 141,141 70.5,141 0,141 0,70.5 z"
         id="path3076"
         inkscape:connector-curvature="0" />
      <path
         style="fill:#cccccc"
         d="m 0,135.5 0,-5.5 6.4077135,0 c 5.0386895,0 7.5400965,0.58754 11.7078285,2.75 4.895022,2.53981 6.182296,2.74851 16.842287,2.73055 9.3654,-0.0158 12.296542,-0.38607 15.542171,-1.96346 3.125301,-1.5189 7.061445,-2.07541 18,-2.54494 14.070849,-0.60398 22.435475,-2.26057 28.800543,-5.70387 2.700977,-1.46114 6.081767,-1.73372 21.699457,-1.74954 10.175,-0.0103 19.2875,-0.40438 20.25,-0.87573 1.6047,-0.78583 1.75,-0.0593 1.75,8.75 L 141,141 70.5,141 0,141 0,135.5 z m 112.94809,0.52778 c 2.45353,-1.31309 3.26277,-3.76527 2.01314,-6.10022 -0.7698,-1.43839 -2.1082,-1.92756 -5.27391,-1.92756 -6.78037,0 -10.946849,4.34047 -7.48732,7.8 1.44243,1.44243 8.2105,1.58586 10.74809,0.22778 z M 60,126.97483 c -1.925,-0.45125 -5.865918,-2.09269 -8.757595,-3.64764 C 46.075568,120.5488 45.931756,120.53021 42.911366,122.25 39.157211,124.38759 32,124.63189 32,122.62244 c 0,-0.75765 0.675,-1.93775 1.5,-2.62244 1.970771,-1.63559 1.89954,-3.90103 -0.195447,-6.21597 -1.514401,-1.67339 -1.551867,-2.3759 -0.350859,-6.57874 C 33.693218,104.61738 34.34367,101.375 34.399142,100 34.491452,97.71188 34.160992,97.511568 30.5,97.636497 23.692658,97.868791 11.33693,100.69913 5.5353629,103.35518 L 0,105.88935 l 0,-9.245787 0,-9.245789 16.440236,-1.75677 16.440235,-1.75677 3.942118,-3.942117 C 39.453303,77.311403 41.657375,76 43.448094,76 46.978904,76 50,77.680527 50,79.64459 c 0,1.254456 0.761725,1.457654 3.75,1.000353 2.0625,-0.315629 12.075,-1.345874 22.25,-2.289435 l 18.5,-1.715566 3.132702,-3.387329 c 2.684368,-2.902553 3.685908,-3.341911 6.998158,-3.069971 3.2018,0.262871 4.27621,0.954028 6.25784,4.025637 2.0625,3.196944 3.16588,3.861646 8.00184,4.82052 3.0852,0.611733 9.32196,2.219972 13.85946,3.573866 l 8.25,2.461624 0,4.03595 0,4.035949 -2.75,-1.866849 c -4.71173,-3.198582 -8.43951,-4.401592 -15.46415,-4.990512 -6.83893,-0.573351 -8.75388,0.374273 -4.53585,2.244586 1.77735,0.788092 2.21089,1.73069 2.06384,4.487128 -0.18265,3.423712 -0.0553,3.542825 6.75888,6.321789 7.25296,2.95791 9.48002,5.32926 8.53629,9.08937 -1.20281,4.79239 -11.91098,6.08694 -21.90567,2.64826 l -5.60975,-1.93004 -6.00532,3.88142 C 82.126962,125.92296 71.103337,129.57761 60,126.97483 z m -9.064705,-13.91368 c 1.220124,-0.77207 1.238006,-1.50601 0.11928,-4.89579 -1.582904,-4.79624 -0.917078,-7.98688 2.518829,-12.070226 7.03136,-8.356297 19.699174,-4.573075 15.505638,4.630736 -0.646135,1.41811 -0.815747,2.85417 -0.376916,3.19124 0.438831,0.33707 1.972232,1.63773 3.407558,2.89036 2.921854,2.54995 4.445972,2.21502 12.390316,-2.72286 2.2,-1.36743 6.89286,-3.43517 10.428577,-4.594976 6.693403,-2.195604 8.826623,-4.079219 7.761953,-6.853711 C 101.91857,90.624223 99,90.460244 99,92.428571 99,94.74299 96.069734,97 93.064935,97 c -3.399837,0 -7.969105,-4.27085 -8.750791,-8.179278 -0.305345,-1.526728 -1.143794,-3.264381 -1.863219,-3.86145 -2.095546,-1.739149 -15.324794,0.574395 -24.46229,4.27799 -7.803257,3.162802 -8.17229,3.465146 -12.048346,9.871046 -3.558663,5.881352 -3.878956,6.922812 -2.91157,9.467232 2.001193,5.26353 4.466706,6.66228 7.906576,4.48561 z M 68.666667,69.333333 C 68.3,68.966667 68,62.466177 68,54.887802 68,47.309426 67.487791,35.346926 66.861757,28.304468 65.089978,8.3731448 65.122234,7.553759 67.693039,7.1879134 70.458132,6.7944192 70.6956,8.1891136 71.492015,29.5 c 0.328867,8.8 0.959904,20.95 1.402303,27 0.442399,6.05 0.599014,11.5625 0.348033,12.25 -0.483808,1.325273 -3.454965,1.704052 -4.575684,0.583333 z M 78.519563,64.75 C 78.289846,64.0625 77.841218,54.05 77.522611,42.5 77.204004,30.95 76.843577,18.575 76.721663,15 76.520215,9.0927791 76.682394,8.5 78.5,8.5 c 1.849402,0 2.061182,0.9375093 2.812528,12.450523 0.44689,6.847787 1.184332,13.114899 1.638759,13.926916 C 84.157373,37.032595 95.690516,25.842994 98.28549,20 c 2.19411,-4.940393 3.34752,-6.078058 5.37383,-5.300491 2.10048,0.806031 1.6226,2.85201 -2.38012,10.190146 l -3.720809,6.821298 7.274689,15.282912 c 4.00108,8.405601 7.03565,15.905843 6.74349,16.667205 -1.42592,3.715865 -5.52522,2.272166 -5.56126,-1.958573 -0.0172,-2.020223 -8.941349,-21.131411 -11.284471,-24.165878 -1.477223,-1.913081 -1.621364,-1.868248 -5.626332,1.75 C 86.843859,41.328979 84.485371,43 83.863422,43 c -0.798379,0 -0.988164,2.962443 -0.645573,10.077026 0.379286,7.876633 0.174526,10.387742 -0.937732,11.5 -1.75582,1.75582 -3.209332,1.822677 -3.760554,0.172974 z m -35.9332,-3.887376 C 42.345847,60.113181 41.951953,55.225 41.711043,50 41.023017,35.077647 37.596765,29.95465 30.109568,32.653257 c -2.49326,0.898644 -2.597911,1.233435 -2.34803,7.511634 0.275197,6.914265 -1.111872,9.682123 -4.248803,8.478369 C 22.391297,48.212924 22,46.485633 22,41.965643 c 0,-3.353419 -0.465833,-6.967542 -1.035184,-8.031384 -1.396481,-2.60935 -6.533151,-2.60935 -7.929632,0 -1.309751,2.447291 -1.342672,12.506798 -0.05562,16.994499 C 14.081544,54.771122 12.959366,57 9.9228683,57 7.7632983,57 7.3626584,55.041222 6.5072793,40.300761 5.9267833,30.297271 5.962187,30.070882 8.3519415,28.505055 c 3.7245405,-2.440413 9.0697265,-2.94916 13.3584735,-1.271439 3.186946,1.246706 4.26666,1.273664 6.789585,0.169522 4.770289,-2.087686 9.270961,-1.723086 11.963184,0.969137 3.278597,3.278597 4.567327,8.365919 5.230296,20.646834 0.48237,8.935467 0.324146,10.721373 -1.050977,11.862624 -1.356678,1.125943 -1.689655,1.122848 -2.05614,-0.01911 z M 56.937922,60.319551 C 56.903779,59.868798 56.727179,53.875 56.545478,47 56.363777,40.125 55.745553,33.309065 55.171649,31.853477 c -1.234862,-3.131964 0.613174,-6.533762 3.042957,-5.601366 1.167654,0.44807 1.666568,3.334555 2.231856,12.912479 1.301708,22.055422 1.343767,21.294191 -1.196462,21.654961 -1.2375,0.175753 -2.277935,-0.04925 -2.312078,-0.5 z M 109.40245,44.606376 c -0.32924,-0.857967 -0.44197,-3.820668 -0.25053,-6.58378 0.24515,-3.53827 -0.0216,-5.023655 -0.90192,-5.023218 -1.94754,9.69e-4 -1.49005,-1.520158 1.47268,-4.89655 C 112.5906,24.834495 116,23.96395 116,26.5 c 0,0.825 -0.675,1.5 -1.5,1.5 -0.825,0 -1.5,0.45 -1.5,1 0,1.300641 3.69616,1.300641 4.5,0 1.01251,-1.638282 5.3221,-1.134818 6.4199,0.75 0.97075,1.666667 1.02073,1.666667 1.04969,0 0.0227,-1.306988 0.8658,-1.75 3.33041,-1.75 1.815,0 3.84,0.54 4.5,1.2 1.72526,1.725255 1.51449,5.8 -0.3,5.8 -0.83333,0 -1.5,-0.888889 -1.5,-2 0,-1.111111 -0.66667,-2 -1.5,-2 -1.2,0 -1.5,1.5 -1.5,7.5 0,6 -0.3,7.5 -1.5,7.5 -0.825,0 -1.51368,-0.7875 -1.53041,-1.75 -0.029,-1.666667 -0.0789,-1.666667 -1.04969,0 -1.17005,2.008849 -4.95155,2.318352 -6.7199,0.55 -0.66,-0.66 -1.2,-3.585 -1.2,-6.5 0,-4.380258 -0.30369,-5.300316 -1.75,-5.301823 -1.47757,-0.0015 -1.75,0.957638 -1.75,6.161445 0,4.037555 -0.43094,6.308717 -1.24947,6.584981 -0.68721,0.231942 -1.51885,-0.28026 -1.84808,-1.138227 z M 122,37 c 0,-4.666667 -0.33333,-6 -1.5,-6 -1.16667,0 -1.5,1.333333 -1.5,6 0,4.666667 0.33333,6 1.5,6 1.16667,0 1.5,-1.333333 1.5,-6 z M 51.365483,20.456392 c -2.246229,-2.246228 -2.53857,-3.228415 -2.105229,-7.073 C 49.770402,8.857371 52.234706,5 54.616032,5 c 2.026489,0 5.097128,3.8158013 5.767355,7.166937 0.908308,4.54154 -0.283454,7.730025 -3.513591,9.400394 -2.746722,1.420385 -3.030204,1.36317 -5.504313,-1.110939 z m 3.238684,-8.185559 c -1.016516,-1.016515 -1.855248,0.513892 -1.021218,1.863382 0.630035,1.019417 0.865577,1.020206 1.204302,0.004 0.231595,-0.694785 0.149207,-1.535121 -0.183084,-1.867413 z"
         id="path3074"
         inkscape:connector-curvature="0" />
      <path
         style="fill:#dbc9b0"
         d="m 59,126.61527 c -2.475,-0.68736 -6.075,-2.2303 -8,-3.42877 -4.061377,-2.52853 -6.71996,-2.71289 -9.44113,-0.6547 -2.249274,1.70127 -8.134793,1.96339 -9.097814,0.40519 -0.361338,-0.58466 0.0621,-1.85759 0.940983,-2.82874 2.009867,-2.22088 2.00942,-3.55065 -0.0022,-6.62081 -1.47239,-2.24715 -1.462263,-2.88069 0.126796,-7.93273 1.428436,-4.54137 1.532192,-6.264114 0.600188,-9.965438 -1.864685,-7.405336 -1.43813,-10.755882 1.88213,-14.783933 4.697731,-5.699163 11.52882,-6.310053 13.839948,-1.237678 0.917997,2.014783 0.840053,3.133208 -0.383213,5.498743 -2.195069,4.244796 -0.06739,4.724863 6.872279,1.550589 C 63.024213,83.558626 72.545127,81 77.239357,81 79.420033,81 81.356172,80.263915 82.5,79 c 2.503109,-2.765904 7.810833,-2.670542 9.699718,0.174272 1.418221,2.135953 1.471948,2.10358 3.048629,-1.836934 2.877158,-7.190725 9.806813,-9.5389 14.190673,-4.808635 1.28894,1.390787 3.17995,5.260253 4.20225,8.598815 1.30691,4.267999 2.50131,6.320651 4.02316,6.914013 2.6334,1.026748 3.79886,4.224279 2.45497,6.735366 -0.87122,1.627888 -0.30879,2.084467 4.63973,3.766519 C 131.21787,100.73881 136,104.34338 136,107.01631 c 0,1.01119 -1.2375,2.8188 -2.75,4.0169 -2.47137,1.95767 -3.49557,2.11178 -10.10857,1.52105 -4.04722,-0.36154 -9.10724,-1.35702 -11.24451,-2.21218 l -3.88593,-1.55484 -9.255493,5.93284 C 79.931984,126.7861 70.151906,129.71238 59,126.61527 z M 74.361626,114.5 C 74.045044,113.675 73.609167,113 73.393011,113 73.176855,113 73,113.675 73,114.5 c 0,0.825 0.435877,1.5 0.968615,1.5 0.532739,0 0.709594,-0.675 0.393011,-1.5 z m -22.59394,-3.40057 C 49.726289,103.39545 49.78394,101.59726 52.187661,98 c 6.63458,-9.928895 20.905712,-8.033628 17.020169,2.26035 -1.102736,2.92148 -0.972218,3.29507 2.057369,5.88887 1.779141,1.52323 3.695698,2.78779 4.259016,2.81014 0.563318,0.0224 4.395692,-1.88068 8.516387,-4.22896 4.120694,-2.34828 8.523749,-4.3473 9.784567,-4.44228 4.069879,-0.306572 8.648471,-3.66086 8.991251,-6.587019 C 103.0701,91.535642 102.72306,91 101.06642,91 99.92989,91 99,91.642857 99,92.428571 99,94.74299 96.069734,97 93.064935,97 c -3.414768,0 -7.970169,-4.27617 -8.759438,-8.222514 -0.310101,-1.550508 -0.963038,-3.065835 -1.450971,-3.367394 -0.487932,-0.301559 -0.68659,-0.872802 -0.441461,-1.269429 0.24513,-0.396627 -2.33503,-0.329509 -5.733688,0.149152 -5.37274,0.756688 -12.132509,2.707884 -24.348827,7.02825 -1.811372,0.640601 -3.856121,2.41944 -4.771988,4.151414 -0.881396,1.666786 -2.529947,4.485968 -3.663448,6.264851 -3.543251,5.56066 -0.353082,12.66523 5.776833,12.8651 3.020577,0.0985 3.040464,0.0653 2.095739,-3.5 z M 37.717581,97.26375 C 37.487727,95.743687 37.293522,96.75 37.286014,99.5 c -0.0075,2.75 0.180555,3.99369 0.417917,2.76375 0.237362,-1.22994 0.243505,-3.479938 0.01365,-5 z m 28.18504,2.305538 c -0.263082,-0.263082 -1.074085,0.513702 -1.80223,1.726192 -1.264918,2.10631 -1.243608,2.12762 0.478332,0.47833 0.991226,-0.94941 1.58698,-1.94144 1.323898,-2.204522 z m 61.826549,2.826542 c -0.33229,-0.33229 -1.1948,-0.36781 -1.91667,-0.0789 -0.79773,0.31922 -0.56078,0.55618 0.60417,0.60416 1.05416,0.0434 1.64479,-0.19292 1.3125,-0.52522 z M 117,100 c 0,-0.55 -0.42344,-1 -0.94098,-1 -0.51754,0 -1.2191,0.45 -1.55902,1 -0.33992,0.55 0.0835,1 0.94098,1 0.85746,0 1.55902,-0.45 1.55902,-1 z m -5.27083,-0.604167 c -0.3323,-0.332291 -1.1948,-0.367818 -1.91667,-0.07895 -0.79773,0.319226 -0.56078,0.556183 0.60417,0.604167 1.05416,0.04342 1.64479,-0.192928 1.3125,-0.52522 z M 109.25,97.337719 c -0.6875,-0.277412 -1.8125,-0.277412 -2.5,0 -0.6875,0.277413 -0.125,0.504386 1.25,0.504386 1.375,0 1.9375,-0.226973 1.25,-0.504386 z M 91.415903,91.358556 C 91.94257,89.986084 91.796239,89.924217 90.522892,90.981001 88.787647,92.421127 88.607052,93 89.893011,93 c 0.491156,0 1.176458,-0.73865 1.522892,-1.641444 z m 8.314362,-3.289278 c -0.07999,-1.061897 -0.48237,-1.722486 -0.894177,-1.467975 -0.411807,0.254511 -0.495248,1.123336 -0.185425,1.930722 0.781232,2.035858 1.252597,1.833818 1.079602,-0.462747 z M 91.5,86 c 0.339919,-0.55 -0.110081,-1 -1,-1 -0.889919,0 -1.339919,0.45 -1,1 0.339919,0.55 0.789919,1 1,1 0.210081,0 0.660081,-0.45 1,-1 z M 90,82 C 89.411298,80.9 88.157965,80.035526 87.214816,80.078947 85.830327,80.142687 85.788947,80.267249 87,80.725581 c 0.825,0.312227 1.859861,1.176701 2.29969,1.921052 C 90.566677,84.790836 91.187046,84.218016 90,82 z m 9.349169,-1.833333 c 1.343161,-1.484179 1.386591,-1.833334 0.228034,-1.833334 -0.78711,0 -1.646851,0.825 -1.910536,1.833334 C 97.402982,81.175 97.300366,82 97.438632,82 c 0.138266,0 0.998008,-0.825 1.910537,-1.833333 z m 6.523231,-3.592873 c -0.45365,-0.509414 -0.33042,-1.521914 0.27384,-2.25 0.8594,-1.035521 0.58202,-1.320459 -1.2738,-1.308481 C 102.97376,73.027568 102.79954,73.224202 104,74 c 0.825,0.533156 1.13594,0.976265 0.69098,0.984687 -0.44496,0.0084 -0.45884,0.577813 -0.0309,1.265313 0.42799,0.6875 0.70088,2.375 0.60643,3.75 l -0.17172,2.5 0.80119,-2.5 c 0.44065,-1.375 0.43002,-2.916793 -0.0236,-3.426206 z M 68.666667,69.333333 C 68.3,68.966667 67.995357,61.654167 67.989683,53.083333 67.984008,44.5125 67.462334,32.1 66.830407,25.5 65.140731,7.8525995 65.153847,7.5 67.5,7.5 c 1.778431,0 2.072989,0.8862774 2.658832,8 1.36268,16.546599 2.938696,52.53318 2.342887,53.497219 -0.70575,1.141927 -2.842012,1.329155 -3.835052,0.336114 z M 107.061,63.75 c -0.49287,-1.2375 -2.09586,-5.4 -3.5622,-9.25 -2.94238,-7.725455 -7.729849,-16.616938 -9.930494,-18.443311 -1.140325,-0.946386 -1.857044,-0.585165 -3.649568,1.839354 -1.226816,1.659357 -3.563733,3.481755 -5.193148,4.049772 l -2.962573,1.032759 0.680954,7.760713 c 0.374525,4.268392 0.879956,8.459318 1.123181,9.31317 0.640145,2.247253 -1.965395,5.392436 -3.863741,4.663973 C 78.32985,64.189345 78.195046,62.461153 78.696207,51.80395 79.064986,43.96183 78.788536,35.692343 77.933867,29 76.030211,14.093735 76.08788,8.6207586 78.152874,8.2153003 c 1.945495,-0.3819948 2.440792,2.1649117 3.416277,17.5671147 0.627496,9.907703 0.729207,10.259136 2.791039,9.643626 C 87.115381,34.603545 96.508425,24.401947 98.103229,20.5 c 1.938251,-4.742255 3.955561,-6.696101 5.548561,-5.374024 1.9458,1.614867 1.73844,2.470016 -2.15179,8.874024 -1.925,3.168892 -3.5,6.483776 -3.5,7.36641 0,1.344482 6.5097,15.892694 12.68898,28.357995 1.3007,2.623879 1.36258,3.508538 0.33226,4.75 C 109.2629,66.593073 108.10929,66.382054 107.061,63.75 z M 41.853095,50.301679 c -0.447462,-13.003671 -2.376738,-17.598 -7.60552,-18.111591 -1.73534,-0.170452 -4.133331,0.213587 -5.328869,0.853419 -1.998831,1.069742 -2.121373,1.674114 -1.523221,7.512428 0.565925,5.523745 0.413001,6.476193 -1.176382,7.326805 -3.056177,1.635616 -4.103815,-0.119216 -4.418345,-7.400891 -0.281889,-6.526015 -0.477842,-7.047483 -3.123303,-8.31169 -2.495086,-1.192345 -3.060319,-1.135439 -4.87206,0.490505 -1.889926,1.696112 -2.010661,2.671755 -1.550523,12.529573 0.421257,9.024876 0.258439,10.782545 -1.045157,11.282782 C 8.2447451,57.610785 7.5018446,54.977976 7.1749218,42.17388 L 6.8498436,29.442029 10.458849,27.721015 c 4.422266,-2.108832 7.751877,-2.180525 11.49012,-0.247404 2.526392,1.306448 3.374302,1.294843 7.474686,-0.102298 11.104528,-3.783693 15.780796,3.375956 15.990844,24.48295 0.07166,7.200809 -0.179614,8.644951 -1.552106,8.920418 -1.418368,0.284675 -1.687368,-1.117428 -2.009298,-10.473002 z m 15.708763,9.79841 C 57.21832,59.544233 56.773567,53.556817 56.573518,46.794721 56.373469,40.032624 55.925379,33.15 55.577764,31.5 c -0.810469,-3.846987 0.658107,-6.37906 2.711426,-4.674956 1.358683,1.127606 1.707206,4.566573 3.00506,29.651725 0.155709,3.009571 -0.197195,4.056689 -1.451013,4.305369 -0.91122,0.180729 -1.937841,-0.126193 -2.281379,-0.682049 z M 110,39.5 c 0,-3.666667 -0.4359,-6.5 -1,-6.5 -0.55,0 -1,-0.675 -1,-1.5 0,-0.825 0.45,-1.5 1,-1.5 0.55,0 1,-0.659167 1,-1.464816 C 110,27.255311 112.82889,25 114.43426,25 c 1.23752,0 0.46394,2.356794 -1.18426,3.607954 -1.66667,1.26518 -1.66667,1.329954 0,1.360243 C 115.37579,30.006829 115.62261,33 113.5,33 c -1.17949,0 -1.5,1.388889 -1.5,6.5 0,3.666667 -0.4359,6.5 -1,6.5 -0.5641,0 -1,-2.833333 -1,-6.5 z m 7.57143,4.928571 c -1.82451,-1.824512 -2.17965,-11.423585 -0.53625,-14.494312 1.29559,-2.420821 5.51625,-2.53378 6.88472,-0.184259 0.97075,1.666667 1.02073,1.666667 1.04969,0 0.0467,-2.687073 6.60113,-2.420632 8.07223,0.328141 C 134.22284,32.284905 133.70381,35 132.10094,35 c -0.52901,0 -1.10564,-1.0125 -1.28139,-2.25 -0.6936,-4.883719 -2.34634,-1.852425 -2.81955,5.171349 -0.31449,4.667949 -0.96376,7.574199 -1.75,7.833333 -0.6875,0.226592 -1.25,-0.37026 -1.25,-1.326336 0,-1.620716 -0.12372,-1.626354 -1.82874,-0.08333 -2.28311,2.06619 -3.59759,2.085804 -5.59983,0.08356 z M 121.79772,36.75 C 121.63397,33.3125 121.05,30.5 120.5,30.5 c -0.55,0 -1.13397,2.8125 -1.29772,6.25 -0.24672,5.179452 -0.0244,6.25 1.29772,6.25 1.32216,0 1.54444,-1.070548 1.29772,-6.25 z M 51.07258,19.365141 C 48.6332,16.263972 48.439052,12.985434 50.463015,9.0715214 52.62495,4.890799 55.055973,4.3637536 57.747069,7.4923392 62.012651,12.451374 60.035991,22 54.743839,22 53.864566,22 52.212499,20.814314 51.07258,19.365141 z M 55.6,12.4 c -0.484047,-1.261407 -0.965565,-1.434435 -1.765565,-0.634435 -0.605,0.605 -0.800496,1.880496 -0.434435,2.834435 0.484047,1.261407 0.965565,1.434435 1.765565,0.634435 0.605,-0.605 0.800496,-1.880496 0.434435,-2.834435 z"
         id="path3072"
         inkscape:connector-curvature="0" />
      <path
         style="fill:#cdbba2"
         d="m 57.5,126.18756 c -1.1,-0.38801 -4.381892,-1.95636 -7.293093,-3.4852 l -5.293094,-2.77973 -2.591765,2.03869 c -2.71112,2.13256 -8.754896,2.76537 -9.828016,1.02902 -0.343201,-0.55531 0.289058,-2.17042 1.405019,-3.58913 l 2.02902,-2.57948 -2.077786,-2.81036 c -2.035906,-2.75371 -2.042552,-2.91643 -0.329754,-8.07318 1.467011,-4.41676 1.565679,-6.052815 0.613749,-10.176799 -1.641885,-7.113038 -1.406473,-10.57039 0.944558,-13.872109 6.333014,-8.893898 18.263664,-6.365734 14.311893,3.032762 C 48.625829,86.741211 48,88.402955 48,88.61481 c 0,1.088132 3.884445,0.06932 10.045178,-2.634639 3.988315,-1.750482 10.079174,-3.425393 14.490413,-3.984683 4.959886,-0.628853 8.502223,-1.666672 10.172067,-2.980172 3.702805,-2.912627 8.041303,-2.660393 9.50525,0.552622 l 1.170031,2.567938 1.558531,-3.978924 c 2.481169,-6.334421 7.60828,-9.418169 12.52313,-7.532162 1.89598,0.727555 5.96847,8.393214 7.00482,13.185177 0.46523,2.151218 1.52865,3.618999 3.03764,4.192716 2.82474,1.073964 4.11118,4.547462 2.43306,6.569471 -1.48842,1.793435 -1.77679,1.569906 5.55988,4.309669 9.81398,3.664867 12.75631,7.774197 8.3868,11.713187 -2.77802,2.50431 -14.58238,2.45047 -21.25268,-0.0969 l -4.61528,-1.76259 -7.75942,5.0773 C 95.991739,116.6053 88.9,120.60232 84.5,122.69504 c -7.113161,3.38316 -8.942267,3.82675 -16.5,4.00148 -4.675,0.10809 -9.4,-0.12094 -10.5,-0.50896 z m 10.25,-1.87689 c -0.9625,-0.25152 -2.5375,-0.25152 -3.5,0 -0.9625,0.25153 -0.175,0.45733 1.75,0.45733 1.925,0 2.7125,-0.2058 1.75,-0.45733 z m -7.020833,-0.91484 c -0.332292,-0.33229 -1.194792,-0.36781 -1.916667,-0.0789 -0.797733,0.31922 -0.560776,0.55618 0.604167,0.60416 1.054166,0.0434 1.644791,-0.19292 1.3125,-0.52522 z M 38,120 c 0,-0.55 -0.198442,-1 -0.440983,-1 -0.242541,0 -0.719098,0.45 -1.059017,1 -0.339919,0.55 -0.141476,1 0.440983,1 C 37.523442,121 38,120.55 38,120 z m 44.486026,-3.94116 c 5.04121,-2.71764 12.836271,-7.21764 17.322358,-10 C 104.29447,103.27648 108.22783,101 108.54918,101 c 0.32134,0 2.20606,1.2375 4.18826,2.75 2.99551,2.2857 4.54598,2.73291 9.18328,2.64876 7.32692,-0.13294 10.99807,-0.71945 10.41494,-1.66391 -0.86425,-1.39978 -7.72697,-3.84398 -17.28711,-6.156915 -5.1983,-1.257653 -9.64361,-2.863109 -9.87846,-3.567679 -0.32165,-0.964937 0.47911,-1.111048 3.24516,-0.592133 4.32759,0.811861 7.58475,-0.0078 7.58475,-1.908588 0,-0.745629 -1.34939,-2.705082 -2.99865,-4.35434 -1.91326,-1.913258 -2.7742,-3.583571 -2.37854,-4.614629 0.34106,-0.888788 -0.14677,-3.62401 -1.08406,-6.078272 C 108.03762,73.531646 107.47242,73 104.79485,73 c -2.30218,0 -2.79541,0.3033 -2.03277,1.25 1.61887,2.009573 2.47775,7.483745 1.2894,8.218182 -1.10064,0.680235 -1.44809,0.01591 -2.50484,-4.789221 -0.87337,-3.971303 -2.631396,-2.884394 -4.236109,2.618996 -1.15743,3.969425 -1.157124,5.114455 0.002,7.44638 3.009839,6.055257 -2.275192,11.475815 -7.714211,7.912033 -3.17237,-2.078617 -5.961425,-7.279149 -5.093057,-9.496627 0.490886,-1.253536 1.181632,-0.558408 2.822354,2.840257 1.833433,3.797857 2.6795,4.548894 5.422396,4.813358 2.864606,0.2762 3.25,0.02391 3.25,-2.127555 0,-1.342502 -0.70789,-3.02841 -1.573088,-3.746461 -0.865198,-0.718051 -2.429305,-2.983871 -3.475792,-5.035155 -1.568162,-3.07385 -2.302567,-3.627219 -4.176912,-3.147271 -1.250815,0.320286 -2.862225,1.406006 -3.580912,2.412711 C 82.279656,83.449414 80.613223,84 77.653395,84 72.381914,84 63.215391,86.339306 57.938945,89.031148 53.965772,91.05811 47.935708,92.692353 40.75,93.689625 37.039094,94.204645 37,94.257755 37,98.784038 c 0,2.515682 -0.538302,6.062612 -1.196227,7.882072 -1.041007,2.87886 -0.91305,3.86125 0.986128,7.571 1.200295,2.34459 2.188597,3.70039 2.196227,3.01289 0.02501,-2.25347 11.746077,-1.5127 19.513872,1.23327 10.334341,3.65326 13.2606,3.35748 23.986026,-2.42443 z M 52.207405,111.48565 C 51.543332,109.00276 51,105.23012 51,103.10201 c 0,-8.396725 13.377853,-15.033546 17.529924,-8.696684 1.413588,2.157407 1.421198,2.775893 0.07384,6.000584 -1.492851,3.57289 -1.483852,3.60474 1.447023,5.12035 C 72.110871,106.59157 73,107.79732 73,109.52568 73,110.88656 72.55,112 72,112 c -0.55,0 -1,-0.64436 -1,-1.43191 0,-1.7967 -5.070768,-5.43427 -6.75,-4.84217 C 62.449539,106.36076 62.747734,104.87936 65,102 68.880539,97.039015 66.959514,93.040393 61.369629,94.443365 54.627011,96.135654 50.216077,105.26318 55.5,106.58936 58.472851,107.33549 58.835182,109 56.024751,109 c -1.710838,0 -1.843743,0.34589 -0.992846,2.58392 0.960613,2.5266 0.582589,4.41608 -0.883517,4.41608 -0.403468,0 -1.27691,-2.03146 -1.940983,-4.51435 z M 46.25,117.33772 c -0.6875,-0.27741 -1.8125,-0.27741 -2.5,0 -0.6875,0.27741 -0.125,0.50439 1.25,0.50439 1.375,0 1.9375,-0.22698 1.25,-0.50439 z M 132.12756,108.25 c 1.20129,-1.53177 1.18161,-1.60159 -0.15787,-0.55988 -0.84168,0.65457 -3.99168,1.35883 -7,1.56502 l -5.46969,0.3749 5.62756,0.18498 c 4.32254,0.14208 5.94582,-0.22084 7,-1.56502 z M 117.68311,91.8125 c -0.31922,-0.797733 -0.55618,-0.560776 -0.60416,0.604167 -0.0434,1.054166 0.19292,1.644791 0.52522,1.3125 0.33229,-0.332292 0.36781,-1.194792 0.0789,-1.916667 z M 42.78543,90.153773 c 1.981044,-1.256966 5.405783,-8.213095 4.809114,-9.76799 -0.86074,-2.243053 -6.044037,-1.625317 -8.948521,1.066468 -1.903334,1.76395 -2.646023,3.448038 -2.646023,6 0,3.207317 0.263882,3.54628 2.75,3.532436 1.5125,-0.0084 3.328444,-0.382333 4.03543,-0.830914 z M 68.666667,69.333333 C 68.3,68.966667 67.995357,61.654167 67.989683,53.083333 67.984008,44.5125 67.462334,32.1 66.830407,25.5 65.140731,7.8525995 65.153847,7.5 67.5,7.5 c 1.778431,0 2.072989,0.8862774 2.658832,8 1.36268,16.546599 2.938696,52.53318 2.342887,53.497219 -0.70575,1.141927 -2.842012,1.329155 -3.835052,0.336114 z M 107.061,63.75 c -0.49287,-1.2375 -2.09586,-5.4 -3.5622,-9.25 -2.94238,-7.725455 -7.729849,-16.616938 -9.930494,-18.443311 -1.140325,-0.946386 -1.857044,-0.585165 -3.649568,1.839354 -1.226816,1.659357 -3.563733,3.481755 -5.193148,4.049772 l -2.962573,1.032759 0.680954,7.760713 c 0.374525,4.268392 0.879956,8.459318 1.123181,9.31317 0.640145,2.247253 -1.965395,5.392436 -3.863741,4.663973 C 78.32985,64.189345 78.195046,62.461153 78.696207,51.80395 79.064986,43.96183 78.788536,35.692343 77.933867,29 76.030211,14.093735 76.08788,8.6207586 78.152874,8.2153003 c 1.945495,-0.3819948 2.440792,2.1649117 3.416277,17.5671147 0.627496,9.907703 0.729207,10.259136 2.791039,9.643626 C 87.115381,34.603545 96.508425,24.401947 98.103229,20.5 c 1.938251,-4.742255 3.955561,-6.696101 5.548561,-5.374024 1.9458,1.614867 1.73844,2.470016 -2.15179,8.874024 -1.925,3.168892 -3.5,6.483776 -3.5,7.36641 0,1.344482 6.5097,15.892694 12.68898,28.357995 1.3007,2.623879 1.36258,3.508538 0.33226,4.75 C 109.2629,66.593073 108.10929,66.382054 107.061,63.75 z M 41.853095,50.301679 c -0.447462,-13.003671 -2.376738,-17.598 -7.60552,-18.111591 -1.73534,-0.170452 -4.133331,0.213587 -5.328869,0.853419 -1.998831,1.069742 -2.121373,1.674114 -1.523221,7.512428 0.565925,5.523745 0.413001,6.476193 -1.176382,7.326805 -3.056177,1.635616 -4.103815,-0.119216 -4.418345,-7.400891 -0.281889,-6.526015 -0.477842,-7.047483 -3.123303,-8.31169 -2.495086,-1.192345 -3.060319,-1.135439 -4.87206,0.490505 -1.889926,1.696112 -2.010661,2.671755 -1.550523,12.529573 0.421257,9.024876 0.258439,10.782545 -1.045157,11.282782 C 8.2447451,57.610785 7.5018446,54.977976 7.1749218,42.17388 L 6.8498436,29.442029 10.458849,27.721015 c 4.422266,-2.108832 7.751877,-2.180525 11.49012,-0.247404 2.526392,1.306448 3.374302,1.294843 7.474686,-0.102298 11.104528,-3.783693 15.780796,3.375956 15.990844,24.48295 0.07166,7.200809 -0.179614,8.644951 -1.552106,8.920418 -1.418368,0.284675 -1.687368,-1.117428 -2.009298,-10.473002 z m 15.708763,9.79841 C 57.21832,59.544233 56.773567,53.556817 56.573518,46.794721 56.373469,40.032624 55.925379,33.15 55.577764,31.5 c -0.810469,-3.846987 0.658107,-6.37906 2.711426,-4.674956 1.358683,1.127606 1.707206,4.566573 3.00506,29.651725 0.155709,3.009571 -0.197195,4.056689 -1.451013,4.305369 -0.91122,0.180729 -1.937841,-0.126193 -2.281379,-0.682049 z M 110,39.5 c 0,-3.666667 -0.4359,-6.5 -1,-6.5 -0.55,0 -1,-0.675 -1,-1.5 0,-0.825 0.45,-1.5 1,-1.5 0.55,0 1,-0.659167 1,-1.464816 C 110,27.255311 112.82889,25 114.43426,25 c 1.23752,0 0.46394,2.356794 -1.18426,3.607954 -1.66667,1.26518 -1.66667,1.329954 0,1.360243 C 115.37579,30.006829 115.62261,33 113.5,33 c -1.17949,0 -1.5,1.388889 -1.5,6.5 0,3.666667 -0.4359,6.5 -1,6.5 -0.5641,0 -1,-2.833333 -1,-6.5 z m 7.57143,4.928571 c -1.82451,-1.824512 -2.17965,-11.423585 -0.53625,-14.494312 1.29559,-2.420821 5.51625,-2.53378 6.88472,-0.184259 0.97075,1.666667 1.02073,1.666667 1.04969,0 0.0467,-2.687073 6.60113,-2.420632 8.07223,0.328141 C 134.22284,32.284905 133.70381,35 132.10094,35 c -0.52901,0 -1.10564,-1.0125 -1.28139,-2.25 -0.6936,-4.883719 -2.34634,-1.852425 -2.81955,5.171349 -0.31449,4.667949 -0.96376,7.574199 -1.75,7.833333 -0.6875,0.226592 -1.25,-0.37026 -1.25,-1.326336 0,-1.620716 -0.12372,-1.626354 -1.82874,-0.08333 -2.28311,2.06619 -3.59759,2.085804 -5.59983,0.08356 z M 121.79772,36.75 C 121.63397,33.3125 121.05,30.5 120.5,30.5 c -0.55,0 -1.13397,2.8125 -1.29772,6.25 -0.24672,5.179452 -0.0244,6.25 1.29772,6.25 1.32216,0 1.54444,-1.070548 1.29772,-6.25 z M 51.07258,19.365141 C 48.6332,16.263972 48.439052,12.985434 50.463015,9.0715214 52.62495,4.890799 55.055973,4.3637536 57.747069,7.4923392 62.012651,12.451374 60.035991,22 54.743839,22 53.864566,22 52.212499,20.814314 51.07258,19.365141 z M 55.6,12.4 c -0.484047,-1.261407 -0.965565,-1.434435 -1.765565,-0.634435 -0.605,0.605 -0.800496,1.880496 -0.434435,2.834435 0.484047,1.261407 0.965565,1.434435 1.765565,0.634435 0.605,-0.605 0.800496,-1.880496 0.434435,-2.834435 z"
         id="path3070"
         inkscape:connector-curvature="0" />
      <path
         style="fill:#ae8f6d"
         d="m 52.209491,123.45111 c -6.753333,-3.41604 -7.421302,-3.5694 -9.065617,-2.08131 -2.093658,1.89473 -7.406259,3.12723 -9.694622,2.2491 -1.436725,-0.55132 -1.385171,-0.98652 0.473034,-3.99316 1.838256,-2.97436 1.907206,-3.52236 0.581603,-4.62251 -1.793501,-1.48848 -1.965875,-6.89517 -0.334015,-10.47672 0.898104,-1.97112 0.882561,-4.44445 -0.0669,-10.646757 -1.234206,-8.062357 -1.23113,-8.087315 1.478779,-11.997716 2.837502,-4.094516 5.299757,-5.260498 9.946561,-4.710119 4.012125,0.475206 5.201146,2.921905 3.587958,7.383095 -1.913821,5.292579 -0.462629,5.950724 6.29727,2.85594 7.425726,-3.39961 14.950504,-5.384141 20.471792,-5.399084 3.383829,-0.0092 4.914457,-0.582807 6.702251,-2.511869 3.082675,-3.326261 6.712762,-3.228233 9.257772,0.25 1.897425,2.593187 2.050083,2.635954 2.677141,0.75 1.959077,-5.892162 2.820587,-7.271447 5.548182,-8.882672 6.28283,-3.711363 10.56771,-0.275941 14.00492,11.228522 0.85168,2.850607 2.06479,4.637225 3.52585,5.192716 2.60783,0.991496 4.07939,4.680609 2.4979,6.262097 -1.84564,1.84564 -1.31675,2.352085 4.77658,4.573822 10.16879,3.707735 13.42841,7.730135 9.29533,11.470525 -2.41699,2.18735 -15.72435,2.28638 -20.82549,0.15499 -5.08692,-2.12545 -5.5808,-2.01041 -12.90931,3.00688 -3.620628,2.47878 -10.484727,6.39544 -15.253549,8.70368 -7.697519,3.72581 -9.625196,4.23785 -17.176745,4.56256 -8.156097,0.3507 -8.806196,0.21399 -15.79667,-3.32201 z m 25.502996,-0.6137 c 7.999583,-2.98917 19.40219,-9.25338 24.614243,-13.52222 3.28386,-2.6896 6.73199,-2.9114 12.67327,-0.81519 9.20643,3.24822 21.34956,1.03598 17.79868,-3.24257 -2.26815,-2.73296 -10.28177,-5.494585 -25.58958,-8.818606 -1.25999,-0.273602 -2.00465,-0.960611 -1.6548,-1.526687 0.35705,-0.577721 1.91039,-0.749347 3.5409,-0.391228 3.75058,0.823766 8.9048,-0.313235 8.9048,-1.964363 0,-0.706499 -1.8,-2.531945 -4,-4.056546 -4.08288,-2.829436 -4.74704,-3.920268 -3.03219,-4.980103 0.58952,-0.364348 0.28632,-2.433566 -0.77573,-5.293982 -1.26207,-3.399128 -2.49042,-4.958514 -4.44829,-5.647059 -3.05509,-1.074418 -4.71217,-0.147234 -2.92712,1.637811 C 104.216,75.615999 104.41834,82 103.06336,82 c -0.51515,0 -1.07765,-1.458815 -1.25,-3.241811 -0.19727,-2.04078 -0.92015,-3.356628 -1.95121,-3.551726 -2.369848,-0.448424 -4.616603,9.015312 -2.901232,12.220512 0.661793,1.236571 1.05382,3.558872 0.871171,5.160668 -0.30053,2.635594 -0.725956,2.941089 -4.476719,3.214706 -3.576017,0.260869 -4.415472,-0.08211 -6.118804,-2.5 C 84.761531,89.789026 83.531095,86 84.865225,86 c 0.55,0 1.30855,1.0125 1.685668,2.25 1.103007,3.619485 3.549985,5.75 6.604095,5.75 3.938567,0 3.715922,-2.39892 -0.868768,-9.360691 -4.058475,-6.162721 -6.338916,-7.014711 -8.784668,-3.282021 -1.322183,2.017906 -2.60757,2.437683 -8.928086,2.915703 -5.383992,0.40719 -9.623421,1.529081 -15.654575,4.142712 -9.735619,4.218978 -11.594166,4.391097 -13.044463,1.208041 -0.855776,-1.878223 -0.723445,-2.92454 0.63139,-4.992279 0.942747,-1.438814 1.45373,-3.294498 1.135518,-4.123745 -0.885208,-2.306814 -6.153636,-1.83129 -9.253647,0.835227 -2.404666,2.068406 -2.681131,2.917946 -2.35937,7.25 0.541809,7.294682 0.310889,16.491363 -0.503291,20.044273 -0.508534,2.21913 -0.230785,3.88222 0.949097,5.68295 1.305434,1.99234 1.427547,2.99504 0.561763,4.61277 C 36.05975,120.75687 36.213419,121 38.342372,121 c 1.327006,0 2.972939,-0.675 3.657628,-1.5 1.732567,-2.08762 3.288401,-1.89508 9.283244,1.14883 2.869216,1.45685 6.341756,2.99317 7.716756,3.41404 4.845648,1.4832 12.869945,0.95769 18.712487,-1.22546 z M 52.227385,110.72072 C 50.227092,102.11698 50.571262,100.19344 54.882353,95.882353 58.070836,92.69387 59.464884,92 62.682353,92 64.837059,92 67.14,92.54 67.8,93.2 c 1.437683,1.437683 1.573591,6.233421 0.246903,8.71236 -0.754497,1.40979 -0.337752,2.23582 2,3.9642 C 72.849105,107.94831 74.141407,112 72,112 c -0.55,0 -1,-0.64436 -1,-1.43191 0,-1.7967 -5.070768,-5.43427 -6.75,-4.84217 -1.788514,0.63063 -1.550752,-0.40012 0.837393,-3.63026 3.059906,-4.13874 2.261483,-7.514006 -1.871491,-7.911562 -2.641632,-0.254102 -3.962132,0.362132 -6.75,3.15 -4.390085,4.390082 -4.667277,8.211362 -0.715902,9.869172 2.453297,1.02929 2.529444,1.19306 0.705772,1.51784 -1.693879,0.30167 -1.975051,0.95661 -1.640594,3.82148 0.626869,5.36958 -1.217774,4.07091 -2.587793,-1.82187 z M 68.975478,69.25 C 68.161689,44.360307 66.811965,20.584049 65.923051,15.479529 64.714939,8.5420374 65.404436,6.1737469 68.307929,7.2879219 c 1.102427,0.4230408 1.597441,3.5771041 2.100362,13.3827821 0.361899,7.056113 1.122093,20.587828 1.68932,30.070478 0.567228,9.48265 0.750755,17.69515 0.407839,18.25 -0.721819,1.167927 -3.493603,1.371154 -3.529972,0.258818 z m 38.142412,-5.5 c -0.45794,-1.2375 -1.79827,-4.858306 -2.97851,-8.046235 -2.77932,-7.50713 -5.748504,-13.378103 -8.871487,-17.5416 L 92.764228,34.82433 89.089951,38.412165 C 87.069099,40.385474 84.606779,42 83.618129,42 81.974457,42 81.849662,42.963031 82.160291,53.25 82.483288,63.94657 82.401612,64.5 80.5,64.5 78.577355,64.5 78.513862,63.952796 78.858387,50.352215 79.106945,40.540055 78.680745,32.369415 77.467632,23.690207 75.682653,10.919584 75.847785,8 78.355071,8 c 1.606847,0 2.2097,3.420819 3.221312,18.278955 0.637443,9.362501 0.75646,9.753117 2.794707,9.172226 C 87.401991,34.587387 95.78303,25.355547 98.625259,19.75 c 2.371401,-4.676957 4.918821,-6.101682 5.977411,-3.343048 0.29694,0.773824 -0.54952,3.136324 -1.88103,5.25 -6.183152,9.815303 -6.129971,9.286074 -1.80986,18.01086 8.91089,17.9962 11.13541,23.570405 9.96777,24.977327 -1.62283,1.955385 -2.8115,1.672524 -3.76166,-0.895139 z M 41.824422,50.301679 C 41.386851,38.496145 40.07906,34.457712 35.942802,32.139354 c -2.215826,-1.241963 -2.950048,-1.242925 -5.5,-0.0072 C 27.603556,33.508053 27.5,33.803539 27.5,40.529118 c 0,6.861223 -0.04326,6.97586 -2.75,7.287304 L 22,48.132845 22,41.123126 C 22,35.0131 21.714743,33.913606 19.777494,32.556704 13.618662,28.24289 11.552058,31.851018 12.258105,45.684963 12.779119,55.89346 12.761139,56 10.517278,56 7.6099254,56 7,53.131428 7,39.457708 l 0,-10.292292 4.634127,-1.76979 c 4.40359,-1.681746 4.875861,-1.683933 9.493329,-0.04395 3.590536,1.275245 5.365949,1.454632 6.800131,0.687081 C 28.995099,27.467439 31.89044,27 34.361678,27 c 3.607171,0 4.882728,0.495253 6.468783,2.511595 2.78034,3.53463 4.232324,10.519721 4.467386,21.491353 0.172245,8.039624 -0.04012,9.484763 -1.435454,9.767997 -1.417309,0.287696 -1.691466,-1.120676 -2.037971,-10.469266 z M 57.701236,60.367903 C 57.315556,59.982223 57,55.038816 57,49.382554 57,43.726293 56.509054,36.809238 55.909008,34.011323 c -0.840522,-3.919221 -0.804336,-5.432519 0.157619,-6.591603 2.803644,-3.378185 3.733717,1.863859 5.243865,29.55527 0.18338,3.36263 -1.787137,5.215032 -3.609256,3.392913 z M 110,39.5 c 0,-3.666667 -0.4359,-6.5 -1,-6.5 -0.55,0 -1,-0.675 -1,-1.5 0,-0.825 0.45,-1.5 1,-1.5 0.55,0 1,-0.659167 1,-1.464816 C 110,27.255311 112.82889,25 114.43426,25 c 1.23752,0 0.46394,2.356794 -1.18426,3.607954 -1.66667,1.26518 -1.66667,1.329954 0,1.360243 C 115.37579,30.006829 115.62261,33 113.5,33 c -1.17949,0 -1.5,1.388889 -1.5,6.5 0,3.666667 -0.4359,6.5 -1,6.5 -0.5641,0 -1,-2.833333 -1,-6.5 z m 7.65499,4.671259 c -1.89655,-2.095665 -2.28932,-11.117493 -0.61981,-14.237 1.22981,-2.297911 4.23852,-2.517705 6.29626,-0.459958 1.29907,1.299069 1.54155,1.299069 2.04005,0 C 125.69903,28.620732 127.22257,28 128.99005,28 c 3.53917,0 6.32444,4.085507 4.21998,6.189965 C 132.36242,35.037583 131.8018,34.608892 131,32.5 c -1.61234,-4.240785 -2.85742,-1.936608 -3.19907,5.920303 -0.19219,4.419725 -0.7526,7.069547 -1.55093,7.333333 -0.75801,0.250467 -1.25,-0.494521 -1.25,-1.892809 l 0,-2.305839 -1.5567,2.222506 c -1.89192,2.701088 -3.59534,2.816968 -5.78831,0.393765 z M 121.79772,36.75 C 121.63397,33.3125 121.05,30.5 120.5,30.5 c -0.55,0 -1.13397,2.8125 -1.29772,6.25 -0.24672,5.179452 -0.0244,6.25 1.29772,6.25 1.32216,0 1.54444,-1.070548 1.29772,-6.25 z M 51.07258,19.365141 C 49.932661,17.915969 49,15.501655 49,14 c 0,-3.362343 3.487447,-8 6.015876,-8 4.558217,0 6.956861,10.904722 3.155383,14.345012 -2.595132,2.348563 -4.710183,2.05661 -7.098679,-0.979871 z M 55.6,12.4 c -0.484047,-1.261407 -0.965565,-1.434435 -1.765565,-0.634435 -0.605,0.605 -0.800496,1.880496 -0.434435,2.834435 0.484047,1.261407 0.965565,1.434435 1.765565,0.634435 0.605,-0.605 0.800496,-1.880496 0.434435,-2.834435 z"
         id="path3068"
         inkscape:connector-curvature="0" />
      <path
         style="fill:#8f6c46"
         d="m 58.529781,126.26826 c -1.08362,-0.27485 -4.392928,-1.86702 -7.354018,-3.53816 -5.206281,-2.93824 -5.476131,-2.98388 -8.184073,-1.38426 C 40.154033,123.02208 33,123.64978 33,122.22251 c 0,-0.42763 0.700476,-1.77757 1.556613,-2.99987 1.419086,-2.02603 1.401673,-2.48467 -0.197086,-5.19116 -1.553003,-2.62902 -1.607161,-3.54053 -0.473241,-7.96485 0.87079,-3.39764 1.033646,-7.166952 0.509025,-11.781356 -1.05069,-9.241542 -0.811609,-10.292864 3.204833,-14.092774 2.848964,-2.695373 4.162357,-3.250591 7.096638,-3 4.865944,0.415556 6.047358,2.522704 4.330715,7.724182 -0.742992,2.25129 -1.04307,4.401078 -0.66684,4.777309 0.376231,0.37623 3.036495,-0.363098 5.911699,-1.642952 7.12856,-3.173172 17.37309,-5.923717 22.322656,-5.993393 2.69376,-0.03792 4.681801,-0.70604 5.809839,-1.952508 2.525892,-2.791078 6.46243,-3.237857 8.711566,-0.988721 C 92.152388,80.152388 93,81.476558 93,82.059017 93,84.370382 94.811101,81.820456 95.400357,78.679451 96.226429,74.276108 100.08068,71 104.43503,71 108.76,71 110.98004,73.67714 113.4673,81.892012 114.48445,85.251406 115.89489,88 116.60162,88 c 0.70674,0 1.97833,0.98991 2.82577,2.1998 1.35792,1.938693 1.36736,2.464513 0.0795,4.429981 -1.39819,2.133913 -1.30038,2.279154 2.26591,3.364727 10.84599,3.301502 15.34657,7.045362 13.22804,11.003872 -0.58223,1.0879 -2.13543,2.24827 -3.45156,2.5786 -3.50243,0.87906 -14.33497,0.0133 -19.73479,-1.57717 l -4.68548,-1.38011 -5.88283,4.12657 c -6.379287,4.47482 -17.8544,10.49857 -24.396745,12.80684 -3.911204,1.37995 -14.126482,1.77873 -18.319684,0.71515 z m 25.811022,-6.01575 c 4.862442,-2.33612 11.985226,-6.35717 15.828407,-8.93566 6.93542,-4.65316 7.01877,-4.67862 11.1592,-3.40874 2.29437,0.70368 7.16961,1.76485 10.83386,2.35815 5.77224,0.93461 7.00798,0.85221 9.25,-0.61682 1.42325,-0.93255 2.58773,-2.38507 2.58773,-3.22782 0,-2.07578 -8.86088,-6.00186 -20.22657,-8.96199 C 106.016,95.439254 105.23565,95.069608 109,95.198498 c 5.68353,0.194601 10.18057,-1.56436 9.37391,-3.666485 C 118.05057,90.689406 117.32327,90 116.75768,90 c -1.8742,0 -5.25543,-4.527634 -5.39838,-7.22871 -0.0774,-1.462183 -0.97739,-4.371389 -2,-6.464902 -1.52813,-3.128409 -2.45717,-3.863619 -5.21595,-4.127701 -3.3159,-0.317411 -3.33715,-0.293458 -1.75,1.972506 1.75675,2.508113 2.23967,8.358068 0.60665,7.348807 -0.55,-0.339919 -1,-1.914919 -1,-3.5 0,-3.149333 -1.60387,-4.796135 -3.157732,-3.242268 -0.540907,0.540907 -1.542864,3.176301 -2.226572,5.856431 -1.044018,4.092547 -1.007559,5.283375 0.227649,7.435601 0.919105,1.601448 1.217161,3.573024 0.794651,5.256437 C 97.098343,95.456352 96.376804,96 94.062735,96 c -1.594538,0 -3.627608,-0.279532 -4.517933,-0.621181 -1.87905,-0.721059 -4.54516,-5.461347 -4.544013,-8.079159 4.33e-4,-0.989813 0.949284,0.116527 2.108556,2.458534 2.058087,4.157824 5.469594,6.238104 7.83382,4.776932 1.735927,-1.072862 1.197719,-6.097653 -0.85179,-7.952433 -1.049744,-0.950005 -2.454338,-3.044749 -3.12132,-4.654987 -1.509949,-3.645339 -4.732885,-3.873516 -7.849768,-0.555746 -1.836202,1.954548 -3.495897,2.453307 -9.431279,2.834217 -5.538309,0.355427 -9.14826,1.340593 -15.620449,4.262868 -6.213062,2.805275 -8.830123,3.540815 -9.993035,2.8086 C 45.968692,89.951101 45.53736,87.232969 47,84.5 c 1.826497,-3.412841 0.907008,-5.951137 -2.289173,-6.319377 -3.769997,-0.434351 -10.178674,5.757875 -9.393357,9.076098 1.724727,7.287537 1.798309,15.413449 0.176279,19.467299 -1.631256,4.07691 -1.618673,4.30171 0.383227,6.84671 1.913272,2.43233 1.956451,2.85071 0.570761,5.53033 -1.36292,2.6356 -1.348518,2.89894 0.158549,2.89894 0.911705,0 3.201915,-0.95441 5.089356,-2.12091 l 3.43171,-2.12092 7.186324,3.70593 c 6.808232,3.51095 7.607225,3.68831 15.186324,3.37092 6.983086,-0.29243 9.123792,-0.87494 16.840803,-4.58251 z M 53.582821,114.75 c -3.509833,-12.37916 -3.438743,-14.09408 0.758234,-18.291055 7.606485,-7.606485 17.715244,-4.462207 13.735509,4.272355 -1.060385,2.3273 -0.87442,2.86043 1.873084,5.36989 2.777263,2.53664 4.420586,6.8637 2.050352,5.39881 -0.55,-0.33992 -1,-1.25492 -1,-2.03334 0,-1.665 -5.618054,-4.82075 -7.029368,-3.94851 -1.619764,1.00107 -1.084403,-1.17884 0.64123,-2.61099 2.300633,-1.90935 3.30282,-5.118971 2.234788,-7.15716 C 64.325509,90.938754 53,97.030008 53,103.19721 c 0,2.14903 0.562539,3.13714 2,3.51304 2.29604,0.60043 2.711312,2.28975 0.562871,2.28975 -1.083953,0 -1.29755,0.86013 -0.869158,3.5 0.530964,3.27195 -0.327921,5.01153 -1.110892,2.25 z M 68.973904,60.823324 C 68.935675,47.165131 67.212102,21.338662 65.925095,15.139185 64.973458,10.555175 65.043074,9.5283545 66.397309,8.1741191 67.389691,7.1817378 68.314902,6.9448668 68.863002,7.5428571 69.34551,8.0692857 70.341061,19.975 71.075337,34 72.892044,68.699903 72.885824,69.384485 70.75,69.803404 69.185368,70.11029 68.997236,69.15908 68.973904,60.823324 z M 107.50019,64.75 c -0.24037,-0.6875 -1.18017,-3.5 -2.08844,-6.25 -2.28523,-6.919061 -8.790153,-19.639684 -11.116129,-21.737992 -1.849115,-1.668123 -2.062473,-1.597771 -5.30726,1.75 C 87.128979,40.430404 84.731895,42 83.661507,42 c -1.852562,0 -1.912653,0.529539 -1.249448,11.010515 0.606066,9.577992 0.488867,11.090273 -0.900802,11.623539 -0.878632,0.337163 -1.865605,0.344931 -2.193273,0.01726 -0.327668,-0.327667 -0.51998,-7.24576 -0.42736,-15.373538 C 78.983244,41.15 78.587593,31.125 78.011401,27 75.680773,10.314876 75.645588,9.3499783 77.344023,8.6982274 c 0.87556,-0.3359837 1.861656,-0.1744491 2.191324,0.3589659 0.481851,0.7796514 2.345454,20.4467287 2.440971,25.7601947 0.08407,4.67674 12.624377,-6.356523 16.479821,-14.499342 2.447091,-5.16834 4.783421,-6.742093 5.856731,-3.945096 0.28977,0.755122 -0.92533,3.792622 -2.70021,6.75 -1.774888,2.957377 -3.516313,6.142685 -3.869834,7.078462 -0.402158,1.064518 2.106088,7.428167 6.700584,17 5.54573,11.55355 7.11605,15.726982 6.41479,17.048588 -1.08369,2.042352 -2.7329,2.287915 -3.35801,0.5 z M 41.852907,49.566608 c -0.307789,-9.69591 -0.681636,-11.861419 -2.460074,-14.25 -3.00882,-4.041079 -6.574194,-5.083021 -9.911297,-2.896467 -2.525218,1.654586 -2.654274,2.121229 -2.327496,8.415788 C 27.493244,47.369861 27.451179,47.5 25,47.5 22.621753,47.5 22.485209,47.184386 22.196297,41.0194 21.859949,33.84219 20.185648,31 16.293986,31 c -1.818851,0 -2.779834,0.903348 -3.989259,3.75 -1.358177,3.196775 -1.42724,4.911994 -0.468136,11.626497 C 13.051438,54.881409 12.845631,56 10.065983,56 7.6853916,56 7,52.400456 7,39.898053 7,30.645001 7.1436513,29.951982 9.3630922,28.497748 c 2.9975588,-1.964076 8.5473928,-2.19168 12.5918638,-0.516406 2.404824,0.996111 3.718004,1.033067 5.637156,0.158643 4.024699,-1.833776 10.835255,-1.430218 12.816887,0.75946 2.273056,2.511698 4.205872,10.101378 5.076146,19.932745 C 46.242149,57.383946 45.664247,61 43.540539,61 42.539361,61 42.127216,58.207794 41.852907,49.566608 z M 57.701236,60.367903 C 57.315556,59.982223 57,54.765936 57,48.776153 57,42.786371 56.487927,35.852015 55.862061,33.366474 c -0.965869,-3.835813 -0.895819,-4.761288 0.463255,-6.120362 2.13138,-2.13138 2.246842,-1.687248 3.705623,14.253888 1.696773,18.541837 1.695271,18.904764 -0.0797,19.25956 -0.85182,0.170268 -1.86432,-0.006 -2.25,-0.391657 z M 110,39.5 c 0,-3.666667 -0.4359,-6.5 -1,-6.5 -1.3836,0 -1.25199,-1.861869 0.25,-3.536725 0.6875,-0.766627 1.83024,-2.084484 2.53943,-2.928571 C 113.43186,24.579846 115,24.562895 115,26.5 c 0,0.825 -0.675,1.5 -1.5,1.5 -0.825,0 -1.5,0.45 -1.5,1 0,0.55 0.675,1 1.5,1 0.825,0 1.5,0.675 1.5,1.5 0,0.825 -0.675,1.5 -1.5,1.5 -1.17949,0 -1.5,1.388889 -1.5,6.5 0,3.666667 -0.4359,6.5 -1,6.5 -0.5641,0 -1,-2.833333 -1,-6.5 z m 8.02292,4.522918 c -2.053,-2.053001 -2.6969,-7.906997 -1.40129,-12.739799 0.8707,-3.247842 4.36033,-4.023621 6.45624,-1.435285 1.67085,2.063421 1.71147,2.065746 2.21845,0.127033 C 125.63481,28.680475 126.66425,28 128.28394,28 c 3.10105,0 4.98976,2.194359 4.47135,5.194958 C 132.36551,35.451033 132.33254,35.44158 131.20327,32.75 128.86769,27.183178 127,29.996662 127,39.081787 127,42.360596 126.55402,45 126,45 c -0.55,0 -1.03553,-0.7875 -1.07895,-1.75 -0.048,-1.064333 -0.27806,-1.255748 -0.58715,-0.488541 -0.27951,0.693803 -1.35867,1.716616 -2.39813,2.272918 -1.46281,0.782871 -2.34711,0.554283 -3.91285,-1.011459 z m 3.7748,-7.193549 C 121.61338,33.008619 121.02398,30.501574 120.25,30.246036 119.33479,29.943868 119,31.596559 119,36.416667 119,41.692061 119.30749,43 120.54772,43 c 1.26191,0 1.49274,-1.139499 1.25,-6.170631 z M 50.982256,19.250313 C 49.365943,17.195504 48.957732,15.647892 49.366933,13.126285 50.491425,6.1968532 55.793301,3.7658218 58.47432,8.9503401 60.586908,13.035636 60.390573,17.609427 58,20 55.296676,22.703324 53.55177,22.51692 50.982256,19.250313 z M 55.6,12.4 c -0.484047,-1.261407 -0.965565,-1.434435 -1.765565,-0.634435 -0.605,0.605 -0.800496,1.880496 -0.434435,2.834435 0.484047,1.261407 0.965565,1.434435 1.765565,0.634435 0.605,-0.605 0.800496,-1.880496 0.434435,-2.834435 z"
         id="path3066"
         inkscape:connector-curvature="0" />
      <path
         style="fill:#5c2f07"
         d="m 59.5,126.04251 c -1.65,-0.41402 -5.204523,-1.94296 -7.898939,-3.39764 -5.562977,-3.00338 -7.28991,-3.19479 -10.042191,-1.11307 -1.968603,1.48898 -9.03128,2.09572 -8.360116,0.7182 0.200981,-0.4125 0.98488,-1.98567 1.741997,-3.49594 1.22267,-2.43893 1.170836,-2.97328 -0.463619,-4.77933 -1.665657,-1.84053 -1.718369,-2.50874 -0.555747,-7.04505 0.885354,-3.45447 1.06427,-7.793577 0.575823,-13.964961 L 33.78858,84.01142 37.29429,80.50571 c 3.881171,-3.881171 8.402017,-4.666546 11.134281,-1.934281 1.955972,1.955971 1.959827,2.776812 0.03056,6.507599 C 46.916159,88.062811 47.196253,90 49.170646,90 49.749583,90 54.335526,88.459934 59.361629,86.57763 64.387733,84.695327 71.425,82.827065 75,82.425938 c 4.598425,-0.51596 6.882276,-1.270045 7.806704,-2.577631 2.0384,-2.883278 7.583414,-2.482267 9.011342,0.651693 1.581101,3.470138 2.842618,3.122355 3.615358,-0.996705 C 96.390775,74.400067 99.939294,71 104.30797,71 c 4.32801,0 5.79741,1.801657 8.78054,10.76597 1.57383,4.729365 2.73212,6.595536 4.51426,7.273103 2.60148,0.98908 3.41468,5.421194 1.14723,6.252594 -2.04826,0.751029 0.26177,2.307308 6.25,4.210658 13.53972,4.303575 13.48722,12.583915 -0.0787,12.420175 -5.55574,-0.0671 -19.27093,-3.63182 -14.79338,-3.845 0.89533,-0.0426 3.24337,0.5975 5.21788,1.4225 4.43751,1.85411 14.63744,1.96399 17.07185,0.1839 4.88419,-3.5714 -1.61002,-8.07293 -17.46767,-12.107891 -9.38741,-2.388613 -9.4134,-2.403767 -3.92841,-2.290045 3.03684,0.06296 6.07434,-0.227178 6.75,-0.644759 1.73992,-1.075335 1.52358,-3.590731 -0.37138,-4.317895 -3.0458,-1.168783 -6.24831,-5.187931 -5.72583,-7.185908 0.27888,-1.066428 -0.40846,-4.00861 -1.52741,-6.538181 C 108.2793,72.377171 107.82082,72 104.55623,72 c -4.09372,0 -4.02329,-0.124162 -2.06239,3.635693 0.82161,1.575369 1.45603,3.764307 1.40981,4.864307 -0.0486,1.156065 -0.50097,0.523114 -1.07212,-1.5 -1.93754,-6.863108 -4.453119,-6.212977 -6.702827,1.732294 -1.013246,3.578472 -0.946228,4.719893 0.43382,7.388611 C 98.782118,92.41313 97.249434,96 93.195753,96 90.550453,96 86,92.553963 86,90.55069 c 0,-0.451224 0.932661,0.365279 2.07258,1.814451 4.542481,5.774829 11.538206,1.65747 7.185982,-4.229335 C 94.186777,86.686113 92.553587,84.0375 91.629251,82.25 89.677063,78.474819 86.142369,77.888862 83.288955,80.867404 82.092272,82.116563 79.348034,82.965674 75,83.432137 71.425,83.815668 64.619207,85.675337 59.876016,87.564733 55.132825,89.45413 50.325649,91 49.193404,91 c -2.383173,0 -3.956342,-3.637062 -2.292741,-5.300663 1.622494,-1.622494 1.345508,-6.667642 -0.402899,-7.338569 -2.385786,-0.915512 -6.457588,0.508147 -9.147898,3.198457 -2.34043,2.34043 -2.438487,2.879055 -1.767582,9.709333 0.8815,8.974292 0.717925,12.436522 -0.760314,16.092782 -0.953841,2.35922 -0.847369,3.43602 0.606725,6.13611 1.373472,2.55039 1.521111,3.72782 0.667441,5.32292 C 35.493261,119.94685 35,121.1231 35,121.43426 c 0,1.15851 4.686581,0.51367 6.55887,-0.90246 2.854829,-2.15928 4.741633,-1.88314 11.562346,1.69218 5.339958,2.79913 7.153828,3.22741 13.764617,3.25 6.939815,0.0237 8.403821,-0.35336 16.530217,-4.25757 4.903827,-2.35598 11.939345,-6.29348 15.634483,-8.75 3.695137,-2.45653 7.332917,-4.45978 8.083947,-4.45167 0.75104,0.008 0.39283,0.57061 -0.79602,1.25 -1.18885,0.67939 -5.64521,3.46226 -9.903025,6.18414 C 81.424597,125.04483 69.338681,128.51125 59.5,126.04251 z m -6.900383,-16.64372 c -0.971095,-3.08067 -1.503428,-6.6459 -1.182962,-7.92274 0.822189,-3.275863 6.322035,-8.483528 8.910268,-8.436908 1.797741,0.03238 1.636995,0.272503 -0.930665,1.390229 -6.843225,2.978919 -9.258016,10.765029 -4.167994,13.439049 1.41012,0.7408 1.564924,0.98744 0.408156,0.65031 -1.646711,-0.47992 -1.786903,-0.13441 -1.204687,2.96907 0.972661,5.18473 0.173489,4.2735 -1.832116,-2.08901 z m 18.110523,-0.98768 c -0.984423,-1.31616 -2.858634,-2.66126 -4.164913,-2.98911 l -2.375052,-0.5961 1.993279,-3.37836 c 2.211254,-3.747798 1.735429,-7.399041 -0.980842,-7.526487 -1.093204,-0.05129 -1.232968,-0.259557 -0.39899,-0.594541 0.705992,-0.283576 1.981813,0.06385 2.835156,0.772065 1.511094,1.254096 1.479984,3.534463 -0.11671,8.555023 -0.524339,1.6487 -0.194345,2.30929 1.407572,2.81772 1.150865,0.36527 2.578464,1.57219 3.172442,2.68205 1.554719,2.90502 0.724726,3.06095 -1.371942,0.25774 z M 85.078947,87.416667 c 0.04798,-1.164943 0.284941,-1.4019 0.604167,-0.604167 0.288871,0.721875 0.253344,1.584375 -0.07895,1.916667 -0.332292,0.332291 -0.568641,-0.258334 -0.52522,-1.3125 z M 69.579021,68.833158 C 69.346903,68.099921 68.870314,58.229673 68.519933,46.899274 68.169553,35.568875 67.306668,22.401357 66.602411,17.638123 65.513602,10.273965 65.533774,8.801896 66.737188,7.8031515 c 1.079892,-0.8962306 1.586579,-0.897319 2.138314,-0.00459 0.397689,0.6434747 1.342997,12.5395385 2.100683,26.4356975 1.782977,32.700245 1.800684,34.992112 0.274341,35.508963 -0.687211,0.232703 -1.439388,-0.176824 -1.671505,-0.910061 z m 9.374643,-5.009834 C 78.928179,63.095496 78.922922,55.75 78.941983,47.5 78.973515,33.851754 78.648317,29.600295 76.438418,14.769736 75.854278,10.849591 76.020658,9.9293031 77.409909,9.3961975 78.3319,9.0423964 79.268235,8.9349021 79.490655,9.1573213 79.713074,9.3797405 80.163527,13.822833 80.491662,19.03086 81.351354,32.675538 81.987624,37 83.13551,37 85.529597,37 96.395302,25.253922 98.630091,20.25 99.963685,17.263945 101.62706,15 102.48739,15 c 2.48021,0 1.73712,3.479777 -2.12905,9.969931 l -3.641656,6.113273 5.683536,12.208398 C 105.52616,50.006221 108.90069,57.075 109.89916,59 c 2.08594,4.021577 1.76198,6 -0.98249,6 C 107.71385,65 107,64.306341 107,63.137538 107,58.727053 95.298826,35 93.123763,35 92.721477,35 90.865783,36.575 89,38.5 87.134217,40.425 84.743692,42 83.687724,42 81.88675,42 81.790467,42.695565 82.133891,53.225232 82.462085,63.287942 82.318764,64.486514 80.75,64.798556 79.7875,64.990007 78.979149,64.551152 78.953664,63.823324 z M 42.86582,60.75 C 42.792021,60.6125 42.630383,56.225 42.506624,51 42.120106,34.681494 36.73355,27.295764 29.112015,32.634095 c -2.095121,1.46748 -2.289512,2.23528 -1.906507,7.530263 0.44832,6.197967 -0.743046,8.610819 -3.692773,7.478902 C 22.361885,47.201638 22,45.3891 22,40.066569 22,34.035186 21.717074,32.91895 19.948415,31.972393 16.901809,30.341898 13.721161,31.176993 12.225811,34 11.0135,36.28867 11.016788,41.337306 12.238183,53 12.440274,54.929697 11.986727,55.572896 10.25,55.819551 8.2453159,56.104261 8,55.712151 8,52.223176 8,50.069416 7.7107929,44.232877 7.3573175,39.253089 L 6.7146349,30.198928 9.9830413,28.50877 c 2.3824407,-1.232008 4.5219077,-1.519368 7.8926827,-1.060096 5.820373,0.793034 9.425632,0.794705 15.16017,0.007 3.567713,-0.490049 5.005175,-0.231641 6.734461,1.210631 C 44.52534,32.632123 48.177088,61 43.932612,61 43.419676,61 42.939619,60.8875 42.86582,60.75 z M 57.896559,60.323324 C 57.839667,59.870496 57.633882,54.389981 57.439261,48.144402 57.244639,41.898823 56.575164,35.242764 55.951539,33.35316 54.657458,29.432058 55.238211,27 57.468615,27 c 1.179676,0 1.533269,1.205752 1.53959,5.25 0.0045,2.8875 0.515219,9.3 1.134904,14.25 1.631902,13.035518 1.608276,13.894683 -0.393109,14.295861 -0.9625,0.192933 -1.796548,-0.01971 -1.853441,-0.472537 z M 110,39.2 c 0,-3.19 -0.52863,-6.328634 -1.17474,-6.974743 -0.89966,-0.899657 -0.41241,-1.90327 2.08077,-4.285891 1.79054,-1.711132 3.55292,-2.813746 3.91641,-2.450254 0.3635,0.363491 -0.12285,1.099503 -1.08077,1.635581 C 111.60456,28.320678 111.46342,30 113.5,30 c 0.825,0 1.5,0.401855 1.5,0.893011 0,0.491156 -0.675,1.152033 -1.5,1.468615 -1.10391,0.423611 -1.5,2.168249 -1.5,6.606989 C 112,42.322872 111.55613,45 111,45 c -0.55172,0 -1,-2.6 -1,-5.8 z m 7.71258,5.179243 C 117.32066,43.987326 117,40.646767 117,36.955778 c 0,-7.427965 1.66697,-10.286402 4.83382,-8.288803 1.30982,0.82621 1.66618,2.631789 1.66618,8.442011 0,7.168405 -0.0764,7.399926 -2.53742,7.686924 -1.39559,0.16275 -2.85809,-0.02475 -3.25,-0.416667 z m 5.27211,-7.251688 c -0.0179,-5.40476 -1.14183,-7.66497 -3.38377,-6.804657 -1.94472,0.746261 -2.28069,10.597332 -0.42471,12.453308 2.03808,2.038079 3.82514,-0.612457 3.80848,-5.648651 z m 3.19547,0.189833 c -0.16405,-7.451082 0.003,-8.240724 1.86783,-8.832619 2.56921,-0.815435 4.97182,1.09524 4.88862,3.887676 -0.0609,2.042996 -0.10042,2.035179 -0.99524,-0.196686 -0.5805,-1.447907 -1.59347,-2.198436 -2.68661,-1.990576 -1.42317,0.270613 -1.86244,1.749137 -2.3246,7.824241 L 126.36032,45.5 126.18016,37.317388 z M 51.068094,19.09563 C 48.488393,15.472774 48.471581,13.378932 50.98904,9.25 53.500874,5.1302922 56.43809,5.012706 58.47432,8.9503401 60.586908,13.035636 60.390573,17.609427 58,20 55.259149,22.740851 53.500328,22.511387 51.068094,19.09563 z M 56,13.5 C 56,12.029782 55.426201,11 54.606989,11 52.734018,11 51.883163,13.483163 53.278145,14.878145 55.065917,16.665917 56,16.192966 56,13.5 z"
         id="path3064"
         inkscape:connector-curvature="0" />
      <path
         style="fill:#060606"
         d="M 68.628101,47.75 C 68.253121,36.0625 67.429743,22.867004 66.798374,18.426675 66.167004,13.986347 65.986221,9.4863469 66.396635,8.4266754 c 0.73569,-1.8995261 0.766336,-1.8993224 2.174785,0.014454 0.989263,1.3441931 1.429831,4.7269156 1.432647,11.0000006 0.0037,8.297363 1.128921,27.793485 2.499519,43.30887 0.498093,5.638488 0.368864,6.25 -1.320795,6.25 -1.750396,0 -1.917504,-1.390011 -2.55469,-21.25 z m 10.328561,16 C 78.932826,63.0625 78.933727,55.075 78.958665,46 78.98529,36.311272 78.40373,25.610174 77.549862,20.077071 76.037948,10.279788 76.15454,9 78.559017,9 c 0.989837,0 1.456185,1.174058 1.489539,3.75 0.08744,6.753157 1.60812,23.240009 2.197967,23.829856 C 84.222035,38.555368 96.954158,25.654289 99.630675,18.965015 100.50324,16.784257 101.59174,15 102.04956,15 c 2.39108,0 1.87108,3.050188 -1.63668,9.600357 l -3.900721,7.283937 4.613521,9.307853 c 8.18843,16.520269 10.28395,21.798223 9.11767,22.964507 C 108.96883,65.431171 107,64.43776 107,62.520162 107,58.328271 95.128891,35 92.995754,35 92.558089,35 90.625,36.575 88.7,38.5 86.775,40.425 84.412198,42 83.44933,42 c -1.592699,0 -1.697712,0.935175 -1.163776,10.363776 0.403624,7.127462 0.232084,10.718586 -0.54933,11.5 C 80.242135,65.357865 79.01066,65.307457 78.956662,63.75 z M 42.71203,51.22707 C 41.765118,34.575929 38.893247,29.684939 31.181791,31.590297 L 27.5,32.5 27.378114,39.138198 c -0.13476,7.339388 -0.784177,9.122832 -3.15565,8.666128 -1.283886,-0.247254 -1.542361,-1.499742 -1.338802,-6.487407 0.209119,-5.123926 -0.101401,-6.534658 -1.815701,-8.248958 -2.853731,-2.853731 -6.635855,-2.657071 -8.6723,0.450936 -1.32253,2.018437 -1.537058,4.054928 -1.079752,10.25 C 11.62979,48.021004 12.024616,52.4 12.193301,53.5 12.413444,54.935566 11.935566,55.5 10.5,55.5 8.6463673,55.5 8.4455231,54.585204 7.7556133,43 7.0972642,31.944771 7.2040308,30.356993 8.6793467,29.26272 11.624843,27.077984 17.215422,26.593229 21.538307,28.14773 c 3.340933,1.201392 4.582831,1.23704 7.010915,0.201247 7.257757,-3.096079 12.286182,-0.895211 14.476358,6.33609 1.562563,5.159114 2.507313,24.867553 1.229903,25.657036 -0.614696,0.379903 -1.200099,-3.077261 -1.543453,-9.115033 z m 15.580868,8.665828 C 57.575972,59.175972 57.345967,56.197786 57.655199,51.635755 57.924111,47.668562 57.533875,41.116073 56.776367,36.879231 55.31906,28.728313 55.433985,27 57.433293,27 c 0.912694,0 1.452355,3.28638 1.931297,11.761053 0.36557,6.468579 1.145527,13.502569 1.73324,15.631087 0.842595,3.051629 0.77757,4.161031 -0.307488,5.24609 -1.016674,1.016674 -1.668927,1.083185 -2.497444,0.254668 z M 110,38.5 c 0,-3.666667 -0.4359,-6.5 -1,-6.5 -0.55,0 -1,-0.476558 -1,-1.059017 0,-0.582459 0.3842,-0.82157 0.85377,-0.531357 0.46958,0.290213 1.35993,-0.583229 1.97856,-1.940983 C 111.45097,27.110889 112.72778,26 113.66969,26 c 1.55182,0 1.53949,0.126558 -0.13134,1.348296 -1.80941,1.323074 -1.31029,4.246821 0.53075,3.108999 C 114.58109,30.140864 115,30.358524 115,30.940983 115,31.523442 114.325,32 113.5,32 c -1.17949,0 -1.5,1.388889 -1.5,6.5 0,3.666667 -0.4359,6.5 -1,6.5 -0.5641,0 -1,-2.833333 -1,-6.5 z m 7.71258,5.879243 C 117.32066,43.987326 117,40.607499 117,36.868517 c 0,-5.606564 0.32635,-6.972806 1.86186,-7.794587 1.30139,-0.69648 2.37029,-0.62466 3.55085,0.238581 1.36268,0.996419 1.63086,2.582791 1.38814,8.211253 -0.286,6.631874 -0.4261,6.990843 -2.83827,7.272146 -1.39559,0.16275 -2.85809,-0.02475 -3.25,-0.416667 z m 4.83416,-2.709456 c 0.32167,-1.281616 0.44274,-4.319116 0.26905,-6.75 C 122.55515,31.271931 122.15069,30.5 120.5,30.5 c -1.71419,0 -2.04384,0.768932 -2.3068,5.380801 -0.16873,2.95944 -0.0704,5.99694 0.21862,6.75 0.84256,2.195687 3.49751,1.57864 4.13492,-0.961014 z m 3.63342,-4.303156 c -0.15884,-7.171033 0.0397,-8.190856 1.67781,-8.619238 2.69579,-0.704964 5.1518,1.012911 5.07864,3.552297 -0.063,2.186744 -0.0691,2.18598 -0.99524,-0.123931 -0.5805,-1.447907 -1.59347,-2.198436 -2.68661,-1.990576 -1.42317,0.270613 -1.86244,1.749137 -2.3246,7.824241 L 126.36032,45.5 126.18016,37.366631 z M 52.736157,20.75 c -2.958142,-2.246323 -3.88645,-6.454536 -2.274745,-10.31189 1.995655,-4.7762735 4.289046,-5.4295385 7.196171,-2.0498052 3.09055,3.5929792 3.102668,8.5488482 0.02797,11.4373812 C 54.979187,22.368181 54.889232,22.38498 52.736157,20.75 z M 56,13.5 C 56,10.703533 53.576825,10.054435 52.603744,12.590242 51.844752,14.568145 52.665827,16 54.559017,16 55.429399,16 56,15.010049 56,13.5 z"
         id="path3062"
         inkscape:connector-curvature="0" />
    </g>
  </g>
</svg>
